<svg width="97" height="104" viewBox="0 0 97 104" xmlns="http://www.w3.org/2000/svg">
    <g fill="#FFF" fill-rule="nonzero">
        <path d="m85.546 50.203.229-.282c3.204-3.944 4.284-5.273 4.995-11.085.182-1.48-.164-2.593-1.026-3.307-1.406-1.163-3.247-.56-5.026.023-2.04.668-3.657 1.111-4.371.263l-.525-.625c-1.566-1.865-1.768-2.105-2.986-2.75-.41-.218-1.03-.547-2.149-1.26-.795-.506-1.285-2.744-1.608-4.224-.256-1.171-.498-2.277-.913-3.135-.593-1.224-1.397-1.907-2.106-2.508-.739-.628-1.503-1.277-2.382-2.836-.419-.743-.345-1.585-.19-2.898.204-1.725.458-3.872-1.081-6.042-.871-1.229-2.21-1.082-4.876-.79-2.008.22-5.043.553-6.5 0a26.715 26.715 0 0 0-3.367-.964c-1.797-.38-3.778-.591-4.85.74-.837 1.037-.81 2.122-.626 2.94-.213-.1-.486-.244-.845-.447-.653-.367-1.392-.784-2.237-.978-.965-.222-2.413-1.287-2.607-1.797l-.07-.318c-.51-2.31-.912-4.136-3.953-5.796-2.683-1.465-6.296-1.525-8.99-.15-.303.155-.601.358-.947.592-.667.454-1.498 1.018-2.382 1.24-.328.081-.905.03-1.463-.02-.914-.082-2.053-.184-3.22.152-3.296.95-6.817 3.17-6.817 6.553 0 .804-.108 1.388-.296 1.603-.187.214-.705.421-1.304.662-1.546.62-3.882 1.556-6.09 4.721-.17.243-.328.459-.473.658-1.432 1.961-1.933 3.042-1.933 7.47 0 1.28-.351 2.362-.758 3.614-.98 3.017-2.09 6.436 1.33 12.853.82 1.536 3.821 4.089 5.466 5.354 4.624 3.558 6.42 3.551 7.57 3.075 1.837-.76 2.934-.69 4.202-.608 1.753.114 3.736.242 6.787-1.73.494-.112 2.031.285 2.957.524 1.298.335 2.638.682 3.91.708-.033.377-.205 1.148-.835 2.803-.092.24-.174.457-.24.642-1.189 3.36.728 4.82 1.996 5.787.588.448 1.142.87 1.631 1.523a1.977 1.977 0 0 0 2.778.393 1.998 1.998 0 0 0 .392-2.79c-.821-1.094-1.735-1.791-2.403-2.3-.293-.223-.687-.524-.798-.673 0-.062.015-.245.142-.605.057-.16.129-.347.207-.555.716-1.882 1.798-4.726.443-6.704-.47-.686-1.4-1.503-3.158-1.503-.815 0-1.965-.297-3.076-.584-2.153-.556-4.379-1.131-6.049-.043-1.98 1.29-2.954 1.227-4.428 1.132-1.409-.091-3.149-.204-5.676.782-.596-.173-2.15-1.009-4.398-2.794-2.292-1.821-3.709-3.345-3.922-3.714-2.622-4.918-1.896-7.151-1.056-9.737.446-1.376.953-2.936.953-4.85 0-3.517.247-3.856 1.165-5.113.161-.22.335-.459.523-.728 1.528-2.191 2.943-2.759 4.311-3.307 1.825-.732 4.096-1.642 4.096-5.965 0-.75 1.62-2.054 3.945-2.724.458-.131 1.097-.074 1.774-.013.842.075 1.797.16 2.772-.083 1.567-.391 2.819-1.242 3.648-1.805.184-.125.435-.296.521-.34 1.508-.77 3.786-.728 5.299.098 1.453.793 1.522 1.108 1.974 3.157l.075.341c.53 2.383 3.642 4.349 5.59 4.796.288.066.742.322 1.182.57 1.312.74 3.509 1.977 5.893.355 1.427-.97 1.31-2.381 1.081-3.26 1.038.19 2.438.58 3.253.888 2.346.89 5.664.526 8.332.233a54.25 54.25 0 0 1 1.57-.157c.22.681.148 1.455.018 2.559-.18 1.52-.404 3.414.677 5.33 1.228 2.18 2.41 3.183 3.273 3.915.605.514.882.76 1.1 1.21.208.431.41 1.354.605 2.246.52 2.378 1.167 5.338 3.358 6.734a31.43 31.43 0 0 0 2.422 1.418c.535.284.535.284 1.805 1.796l.528.63c2.493 2.96 6.334 1.703 8.63.951.235-.077.517-.17.791-.253-.544 4.016-1.187 4.807-4.037 8.316l-.23.282c-2.423 2.986-4.19 4.419-5.609 5.57-1.623 1.316-2.905 2.356-3.673 4.62-.653 1.929-.896 4.642-.896 10.01 0 1.684.169 2.792.304 3.682.152.994.252 1.65.104 2.855-.13 1.065-.725 1.445-2.392 2.259-2.05 1.002-5.478 2.675-4.153 8.196.05.568-.083 2.528-.39 3.298-.832 2.081-2.482 3.131-2.499 3.142-1.196.73-2.497 1.797-3.875 2.928-2.91 2.388-6.532 5.36-8.839 4.653-1.612-.495-1.841-.83-1.843-.834-.044-.073-.093-.42-.126-.651-.122-.855-.306-2.147-1.337-3.703-1.097-1.657-1.188-2.394-1.325-3.509-.185-1.494-.414-3.353-2.674-6.967-1.02-1.633-1.87-4.218-1.462-6.312a1.992 1.992 0 0 0-1.567-2.337 1.984 1.984 0 0 0-2.327 1.574c-.655 3.376.602 6.963 1.998 9.194 1.79 2.864 1.938 4.065 2.095 5.338.161 1.305.344 2.785 1.96 5.225.533.806.617 1.388.713 2.061.324 2.273 1.145 3.63 4.737 4.731.622.19 1.248.278 1.875.278 3.742 0 7.514-3.096 10.632-5.656 1.268-1.04 2.465-2.023 3.424-2.608.284-.174 2.812-1.787 4.12-5.064.63-1.575.821-4.68.58-5.66-.29-1.18-.267-2.014.07-2.478.346-.474 1.124-.854 1.948-1.256 1.668-.815 4.189-2.046 4.594-5.356.214-1.75.044-2.865-.12-3.944-.127-.835-.259-1.698-.259-3.08 0-4.761.199-7.29.685-8.724.379-1.117.915-1.593 2.41-2.805 1.48-1.201 3.507-2.845 6.191-6.152zM95.496 69.835c-.729-1.027-1.73-1.654-2.898-1.814-2.657-.361-4.192 2.106-5.205 3.74l-.176.282c-.482.77-.692.841-1.86 1.234-.171.058-.352.118-.544.185-2.065.72-2.393 2.952-2.71 5.11-.183 1.242-.39 2.65-.896 3.705-1.207 2.52-2.032 6.067-.728 8.469.671 1.235 1.827 2.01 3.254 2.183.32.038.625.057.918.057 4.137 0 5.805-3.67 6.934-6.154.446-.98.906-1.992 1.365-2.49 1.834-1.995 3.084-4.64 3.715-7.86.309-1.574.252-4.644-1.17-6.647zm-2.735 5.87c-.486 2.48-1.405 4.469-2.73 5.91-.892.97-1.488 2.28-2.064 3.547-1.393 3.065-2.093 3.987-3.76 3.785-.18-.022-.196-.052-.236-.126-.378-.696-.172-2.73.82-4.8.77-1.607 1.036-3.411 1.249-4.86.095-.65.232-1.584.384-2.015l.194-.065c1.402-.472 2.726-.917 3.966-2.9l.184-.295c.351-.566.984-1.587 1.367-1.859a.65.65 0 0 1 .123.14c.563.794.675 2.656.503 3.539z"/>
        <path d="M42.817 67.986a2 2 0 0 0-2-2h-.001a2 2 0 1 0 2.001 2z"/>
    </g>
</svg>
