<svg width="102" height="89" viewBox="0 0 102 89" xmlns="http://www.w3.org/2000/svg">
    <g fill="#FFF" fill-rule="nonzero">
        <path d="m72.301 14.855-.304-.026c-1.015-.087-1.91.73-1.99 1.824-.08 1.093.68 2.05 1.698 2.137l.297.026c.05.004.101.007.151.007.954 0 1.764-.788 1.842-1.827.082-1.093-.676-2.052-1.694-2.14z"/>
        <path d="M101.94 22.404c-.596-3.409-5.363-4.372-6.929-4.688a212.318 212.318 0 0 0-13.817-2.32 1.994 1.994 0 0 0-2.238 1.718 1.998 1.998 0 0 0 1.711 2.247c4.511.604 9.072 1.37 13.558 2.276 2.944.595 3.657 1.312 3.78 1.467-.06.223-.552 1.49-4.28 3.764-.739.45-1.51.833-2.255 1.203-1.38.685-2.806 1.392-4.114 2.553-.787.698-1.267 1.665-1.731 2.6-.784 1.579-1.172 2.14-1.79 2.148-.184.003-.31-.01-.39-.023-.061-.279-.078-.818-.09-1.196-.048-1.5-.129-4.01-2.508-5.375-2.32-1.33-7.668-.017-9.225 1.446-.991.931-2.301 2.373-2.231 4.134.062 1.56 1.166 2.443 1.638 2.82l.092.073c.106.132.206.248.297.352.08.092.185.214.233.281.001.06-.006.21-.074.49-.102.216-.594.997-1.868 2.455a4.46 4.46 0 0 0-.114.135c-.434.552-1.302 1.207-2.14 1.841-1.164.88-2.262 1.71-2.902 2.725-.271.43-.395.894-.441 1.38-.461-.536-1.058-.953-1.874-1.026-1.473-.134-2.386.437-2.892.938-1.398 1.38-1.24 3.545-1.074 5.836.117 1.599.276 3.787-.382 4.448-.343.346-1.915.566-2.76.684-1.846.259-3.755.526-4.794 1.99-1.929 2.717-.279 4.28.263 4.793l.132.126c-.003.02-.007.044-.013.071-.126.63-.261 1-.358 1.207-.643-.295-1.818-1.257-2.56-1.865-.987-.808-2.007-1.644-3.085-2.283-2.721-1.612-4.678-2.116-6.346-1.636-2.018.582-2.952 2.388-3.855 4.135-.203.393-.415.802-.646 1.217-.647-1.893-1.475-4.038-2.578-5.863-2.04-3.37-4.58-4.919-7.553-4.606-1.115.118-3.705.393-3.758 3.079-.25.384-.443.82-.66 1.309-.365.827-.78 1.765-1.482 2.43-1.704 1.615-2.908 2.401-3.68 2.401l-.047-.001c-.556-.024-1.296-.55-2.197-1.564-1.465-1.648-2.178-3.603-2.931-5.672-.68-1.868-1.429-3.922-2.81-5.843l.022-.092c1.527-1.051 2.93-2.11 3.962-3.45 1.56-2.024 1.945-4.357 1.146-6.931-.658-2.12-2.42-3.457-4.124-4.751-1.466-1.114-2.85-2.165-3.158-3.445-.163-.68.29-1.653.768-2.683.518-1.113 1.105-2.375 1.182-3.804.07-1.282-.327-2.408-.646-3.312-.11-.31-.264-.75-.315-1.01l.067-.038h.007c.604 0 2.207.462 3.288.773 2.346.676 4.563 1.315 6.292.972 1.91-.38 3.945-1.04 5.912-1.68 1.002-.324 1.947-.632 2.83-.886 1.557-.45 2.852-.918 4.105-1.37 2.154-.777 4.014-1.449 6.665-1.82 1.026-.143 3.435-.704 5.69-1.395 4.223-1.294 5.35-2.215 5.893-2.944.184-.246.337-.446.461-.61.397-.52.596-.782.746-1.151.193-.476.391-1.416-.448-2.362l-.007-.009a1.957 1.957 0 0 1-.11-.374c-.288-1.321-1.225-2.155-1.979-2.826a9.331 9.331 0 0 1-.615-.58c.067-.097.178-.238.36-.424.255-.26.35-.358 1.894.329.406.18.826.367 1.277.521 1.238.423 4.633 2.386 5.765 3.334.871.73.87.906.867 1.562-.002.637-.007 1.6.558 2.73l.23.465c.501 1.016.804 1.629 1.427 2.11.812.628 1.65.611 2.46.595.646-.012 1.53-.03 3.041.155a1.995 1.995 0 0 0 2.22-1.743 1.998 1.998 0 0 0-1.737-2.227c-1.79-.22-2.923-.197-3.601-.184-.076-.15-.16-.32-.24-.482l-.237-.479c-.132-.264-.138-.443-.136-.923.006-1.373-.166-2.863-2.3-4.65-1.388-1.164-5.192-3.42-7.035-4.05-.281-.096-.604-.24-.945-.39-1.42-.633-4.064-1.81-6.349.523-1.102 1.126-1.62 2.236-1.58 3.395.057 1.648 1.2 2.664 2.034 3.407.255.227.636.566.739.734.079.355.172.655.273.912l-.176.233c-1.055.89-6.997 2.558-8.99 2.837-3.06.428-5.199 1.2-7.464 2.017-1.192.43-2.425.876-3.858 1.29-.945.272-1.921.589-2.954.925-1.858.603-3.779 1.227-5.46 1.56-.782.157-2.97-.475-4.42-.892-2.511-.723-4.495-1.294-5.939-.622-1.896.883-2.407 2.226-2.503 3.197-.103 1.05.24 2.022.542 2.879.231.656.45 1.276.423 1.76-.035.656-.413 1.47-.814 2.33-.677 1.458-1.52 3.272-1.03 5.312.64 2.67 2.758 4.278 4.627 5.697 1.258.956 2.446 1.858 2.724 2.752.818 2.636-.581 3.882-4.487 6.525-.32.217-.645.436-.97.66l-.01.007c-.434.299-.73.756-.829 1.269v.004a1.97 1.97 0 0 0-.036.412c.01.53.23 1.04.617 1.41 1.834 1.759 2.622 3.922 3.456 6.212.85 2.333 1.728 4.744 3.7 6.962 1.065 1.198 2.741 2.8 5 2.897 2.487.105 4.655-1.613 6.633-3.487 1.283-1.216 1.949-2.72 2.389-3.716.117-.264.276-.625.35-.74.337-.438.5-.882.579-1.261.078-.01.166-.021.264-.031 3.315-.358 5.415 6.117 6.54 9.592.22.68.428 1.323.623 1.86a1.994 1.994 0 0 0 1.872 1.316c.522 0 1.03-.207 1.407-.586 1.732-1.74 2.686-3.584 3.453-5.066.467-.903 1.047-2.026 1.418-2.133.127-.036.882-.15 3.222 1.237.818.484 1.719 1.222 2.59 1.936 2.076 1.7 4.222 3.46 6.477 2.65 2.159-.775 2.692-3.428 2.867-4.3.35-1.744-.306-2.83-.862-3.46.489-.149 1.354-.27 1.92-.35 1.752-.245 3.74-.523 5.028-1.819 1.944-1.955 1.718-5.065 1.536-7.565-.02-.263-.04-.562-.059-.868.708 1.141 1.851 2.359 3.677 1.811 2.541-.762 2.344-3.659 2.249-5.05-.016-.239-.039-.566-.04-.787.368-.408 1.14-.99 1.778-1.472 1.026-.776 2.086-1.577 2.84-2.52l.012-.014c2.385-2.728 2.62-3.651 2.72-4.046.597-2.345-.166-3.48-.999-4.442-.077-.09-.159-.183-.238-.284a3.856 3.856 0 0 0-.666-.639c.136-.195.38-.493.812-.9.724-.564 3.749-1.145 4.575-.883.328.212.42.63.465 2.009.032.988.068 2.108.614 3.11.494.907 1.556 1.98 3.81 1.98l.087-.001c3.16-.038 4.505-2.745 5.307-4.362.253-.51.599-1.206.804-1.388.91-.808 1.99-1.344 3.241-1.964.822-.408 1.672-.83 2.56-1.371 4.637-2.83 6.59-5.335 6.144-7.882z"/>
        <path d="M78.139 47.146a1.945 1.945 0 0 0-2.686.533c-.584.87-1.064 1.654-1.488 2.346-1.43 2.336-2.216 3.622-4.992 5.207a1.915 1.915 0 0 0-.714 2.626 1.939 1.939 0 0 0 2.645.708c3.638-2.077 4.844-4.048 6.372-6.543.423-.692.86-1.407 1.4-2.21a1.914 1.914 0 0 0-.537-2.667zM55.59 83.948c-3.608-1.043-6.159-3.152-10.107-8.356a1.922 1.922 0 0 0-2.725-.358 1.996 1.996 0 0 0-.352 2.769c3.84 5.062 7.054 8.278 12.12 9.744.178.051.357.076.533.076.846 0 1.624-.567 1.868-1.435.293-1.05-.306-2.141-1.338-2.44zM64.036 84.823h-.07c-1.081 0-1.96.89-1.965 1.99-.004 1.105.871 2.004 1.957 2.01h.02v-.001h.059c1.085 0 1.964-.895 1.964-1.999s-.88-2-1.965-2zM63.686 72.212c-.244-.853-.813-2.851-2.523-3.3-1.608-.423-2.755.744-3.767 1.774-.825.84-1.76 1.793-2.838 2.023-.907.195-1.557 1.012-1.557 1.958 0 2.732 1.102 4.814 3.023 5.711a4.79 4.79 0 0 0 2.034.445c1.317 0 2.67-.512 3.77-1.483 1.946-1.717 2.64-4.382 1.858-7.128zm-4.418 4.1c-.508.447-1.187.628-1.614.428-.238-.111-.427-.373-.553-.749 1.218-.637 2.156-1.552 2.908-2.316.295 1.453-.324 2.268-.741 2.637zM77.94 83.413c-1.035-3.986-3.25-5.218-5.813-6.644-.388-.216-.789-.438-1.208-.682a1.945 1.945 0 0 0-2.652.69c-.54.92-.23 2.1.695 2.638.45.262.868.494 1.271.719 2.356 1.31 3.332 1.853 3.952 4.242a1.937 1.937 0 0 0 2.361 1.385 1.927 1.927 0 0 0 1.393-2.348zM31.94 5.313c-.268-1.054-1.356-1.695-2.429-1.43-.076.018-.214.046-.403.086-6.986 1.466-10.736 3.346-11.801 5.915-.545 1.312-.357 2.754.527 4.06.386.57 1.022.879 1.67.879.381 0 .767-.107 1.108-.33a1.945 1.945 0 0 0 .56-2.726c-.075-.11-.193-.306-.154-.399.077-.188.991-1.885 8.928-3.552.252-.053.436-.092.537-.117 1.074-.264 1.726-1.332 1.458-2.386zM68.415 68.409a2.014 2.014 0 0 0-1.414-.586c-.526 0-1.042.214-1.414.586a2.014 2.014 0 0 0-.586 1.414c0 .526.214 1.042.586 1.414.372.372.888.586 1.414.586.526 0 1.042-.214 1.414-.586.374-.372.586-.888.586-1.414 0-.526-.212-1.042-.586-1.414z"/>
    </g>
</svg>
