<svg width="22" height="22" viewBox="0 0 22 22" xmlns="http://www.w3.org/2000/svg">
    <g fill="#FFF" fill-rule="nonzero">
        <path d="M9.5 0C4.262 0 0 4.262 0 9.5S4.262 19 9.5 19 19 14.738 19 9.5 14.738 0 9.5 0zm0 17.246c-4.271 0-7.746-3.475-7.746-7.746 0-4.271 3.475-7.746 7.746-7.746 4.271 0 7.746 3.475 7.746 7.746 0 4.271-3.475 7.746-7.746 7.746z"/>
        <path d="m21.735 20.455-5.19-5.19a.905.905 0 1 0-1.28 1.28l5.19 5.19a.902.902 0 0 0 1.28 0 .905.905 0 0 0 0-1.28z"/>
    </g>
</svg>
