<svg width="106" height="106" viewBox="0 0 106 106" xmlns="http://www.w3.org/2000/svg">
    <g fill="#FFF" fill-rule="nonzero">
        <path d="M78.735 95.985a1.954 1.954 0 0 0-2.682-.718l-.075.044a1.987 1.987 0 0 0-.713 2.703 1.958 1.958 0 0 0 1.699.986c.334 0 .673-.086.983-.268l.075-.044a1.987 1.987 0 0 0 .713-2.703z"/>
        <path d="M98.897 26.516C91.821 14.26 80.394 5.492 66.723 1.828 53.053-1.835 38.773.045 26.516 7.122 14.26 14.198 5.491 25.625 1.828 39.296c-3.663 13.67-1.783 27.95 5.294 40.207a52.976 52.976 0 0 0 28.408 23.529A53.168 53.168 0 0 0 53.044 106a52.745 52.745 0 0 0 18.92-3.501 2.07 2.07 0 1 0-1.486-3.865c-16.152 6.209-33.639 3.388-46.703-6.418l1.855-9.682.894-.29a6.448 6.448 0 0 0 4.135-8.116l-.656-2.018c-.151-.467-.15-.96.002-1.428a6.443 6.443 0 0 0-4.884-8.328l-4.673-.913-9.015-6.855a2.07 2.07 0 0 0-1.893-.321L4.26 55.98a48.807 48.807 0 0 1-.007-5.653c.208.194.344.326.428.412.103.172.23.33.38.467.432.392.822.57 1.642.57.753 0 1.869-.15 3.71-.422 1.747-.258 3.484-.549 3.501-.552a2.07 2.07 0 0 0 1.368-3.207l-2.538-3.724 3.636-2.6c.242-.173.444-.396.592-.655l5.636-9.839 2.272-2.434a8.745 8.745 0 0 0 1.687-9.275 9.521 9.521 0 0 0-3.77-4.441 48.995 48.995 0 0 1 5.788-3.92 48.542 48.542 0 0 1 23.857-6.529l-3.697 4.638-13.708 4.805a2.07 2.07 0 0 0-1.229 1.164l-3.828 9.281a2.07 2.07 0 0 0 .228 1.993l5.592 7.832c-.8.73-1.58 1.795-2.511 3.116-.409.58-.794 1.127-1.06 1.433-.232.268-.464.528-.694.787-1.202 1.353-2.446 2.752-3.33 4.621-1.942 4.112-1.55 8.89 1.024 12.472 2.49 3.462 6.592 5.222 10.971 4.707.714-.083 1.379-.248 2.023-.407 1.774-.44 2.337-.483 2.906.05.277.259.303.308.297 1.188-.004.56-.008 1.256.185 2.051.309 1.272 1.108 2.152 1.75 2.858.318.35.648.714.75.958.646 1.547.365 2.404-.251 4.282-.053.16-.107.324-.161.493-.936 2.897.369 5.771 1.52 8.306.374.824.727 1.6.958 2.288 1.861 5.523 3.257 6.788 4.377 7.297a4.315 4.315 0 0 0 1.806.384c2.985 0 6.099-2.771 7.53-4.528.898-1.103 1.12-2.208 1.28-3.014.081-.402.145-.718.265-.925.186-.317.404-.563.68-.874.555-.625 1.245-1.402 1.693-2.812.34-1.07.587-1.333 1.405-2.204l.457-.49c2.757-3.001 2.047-5.293 1.295-7.72-.633-2.042.474-3.348 3.15-5.84 1.16-1.081 2.36-2.198 3.288-3.54.405-.588 1.64-2.376.876-4.147-.749-1.737-2.652-2.029-4.181-2.263-.604-.093-1.517-.233-1.807-.423-1.281-.837-2.065-2.585-2.823-4.276-.15-.336-.3-.668-.45-.99-.27-.576-.538-1.271-.823-2.008-.753-1.95-1.607-4.16-3.06-5.7-1.306-1.383-3.768-2.05-5.94-2.638-.731-.198-1.42-.385-1.876-.553a2.067 2.067 0 0 0-1.19-.073c-1.056.248-1.716.52-2.206.913-.13.104-.513.444-.737.992-.758-.364-1.8-1.059-2.441-1.486l-.04-.027c.216-.865.02-1.559-.185-1.992-1.156-2.447-4.995-2.255-5.753-2.19-.43.035-.974.054-1.55.075-.904.032-1.904.068-2.893.179l.051-.142a5.293 5.293 0 0 1 4.97-3.497h1.178a2.07 2.07 0 0 0 0-4.14h-1.177a9.45 9.45 0 0 0-8.014 4.469l-3.088-4.326 3.038-7.363 13.395-4.697c.368-.129.692-.358.934-.663l5.955-7.47c15.216 1.448 29.538 9.979 37.745 24.194a48.312 48.312 0 0 1 4.879 11.85l-.878.782a5.53 5.53 0 0 0-1.844 4.073l-1.43-3.932a5.168 5.168 0 0 0-.932-1.6l-2.55-2.985a5.188 5.188 0 0 0-3.95-1.821h-3.122a2.994 2.994 0 0 0-2.644 1.583 2.994 2.994 0 0 0 .149 3.078l.316.475a22.944 22.944 0 0 1-6.835 4.059l-4.28-8.197v-1.829c0-.566-.23-1.107-.64-1.497l-3.854-3.679a2.073 2.073 0 0 0-.743-.456l-3.469-1.219a2.07 2.07 0 1 0-1.372 3.906l3.048 1.072 2.89 2.759v1.45c0 .334.081.663.236.959l5.357 10.262a2.07 2.07 0 0 0 2.551.984l1.56-.575a27.093 27.093 0 0 0 9.715-6.217 2.07 2.07 0 0 0 .258-2.613l-.11-.165h.989c.309 0 .601.135.802.37l2.55 2.986c.083.096.146.205.19.325l2.814 7.74a2.07 2.07 0 0 0 3.41.755l1.339-1.34a6.463 6.463 0 0 0 1.711-3.112c2.072 16.605-4.438 33.782-18.2 44.584a2.07 2.07 0 1 0 2.556 3.257c9.935-7.799 16.761-18.953 19.22-31.407a52.95 52.95 0 0 0-6.102-36.735zM9.79 58.537l8.536 6.491c.253.192.545.323.856.384l5.146 1.005a2.27 2.27 0 0 1 1.543 1.094c.338.577.41 1.245.2 1.88a6.4 6.4 0 0 0-.005 3.998l.656 2.018a2.303 2.303 0 0 1-1.477 2.899l-2.057.668a2.07 2.07 0 0 0-1.393 1.58l-1.656 8.643a49.393 49.393 0 0 1-9.43-11.763 48.59 48.59 0 0 1-6.015-17.24l5.096-1.657zm12.065-33.019-2.435 2.61a2.079 2.079 0 0 0-.283.383l-5.53 9.655-4.916 3.515a2.07 2.07 0 0 0-.506 2.85l1.838 2.696a75.67 75.67 0 0 1-2.643.357 33.22 33.22 0 0 0-.38-.357 104.978 104.978 0 0 0-2.195-1.96c1.681-10.406 6.695-20.21 14.582-27.692a5.383 5.383 0 0 1 3.354 3.071 4.594 4.594 0 0 1-.886 4.872zm16.88 11.313c.923-.52 3.066-.596 4.63-.651a37.76 37.76 0 0 0 1.75-.088c.279-.023.589-.019.881.004a2.068 2.068 0 0 0 .953 2.576c.388.208.929.568 1.5.95 1.619 1.078 3.453 2.3 5.176 2.41 1.567.102 2.438-.79 2.812-1.171.03-.03.058-.06.088-.088.21-.172.407-.401.554-.679.33.095.678.19 1.035.286 1.226.332 3.507.95 4.012 1.484.895.949 1.593 2.756 2.209 4.35.311.805.605 1.565.935 2.27.141.303.28.614.422.93.956 2.13 2.038 4.546 4.335 6.047 1.042.681 2.319.877 3.445 1.05.137.02.293.045.451.07-.668.934-1.62 1.82-2.627 2.757-2.562 2.387-5.752 5.357-4.283 10.096.693 2.238.726 2.48-.39 3.692a53.51 53.51 0 0 1-.426.458c-.954 1.016-1.709 1.819-2.333 3.786-.181.57-.416.836-.843 1.316-.341.384-.766.863-1.158 1.534-.47.803-.625 1.577-.75 2.199-.122.612-.192.919-.432 1.213a12.068 12.068 0 0 1-2.613 2.312c-.973.617-1.542.702-1.735.69-.221-.237-1.021-1.274-2.23-4.862-.298-.885-.712-1.796-1.112-2.677-.882-1.942-1.793-3.95-1.35-5.323l.155-.475c.709-2.159 1.377-4.198.138-7.167-.377-.904-.977-1.565-1.507-2.148-.342-.377-.73-.804-.79-1.05-.073-.3-.07-.646-.068-1.047.007-1.082.018-2.716-1.607-4.238-2.291-2.145-4.963-1.484-6.731-1.047-.543.134-1.056.262-1.51.315-2.91.34-5.506-.757-7.127-3.012-1.696-2.36-1.942-5.535-.642-8.287.63-1.331 1.58-2.4 2.68-3.639.24-.27.483-.543.726-.823.404-.465.848-1.095 1.318-1.763.56-.796 1.605-2.278 2.058-2.56z"/>
        <path d="m83.933 71.151-.959-3.653a2 2 0 0 0-1.69-1.484 1.99 1.99 0 0 0-1.988 1.04c-.218.407-.415.838-.605 1.255-.32.701-.65 1.426-.995 1.827-.193.225-.69.467-1.17.701-1.147.56-2.719 1.326-3.32 3.261-.372 1.2-.233 2.15-.131 2.843.088.6.108.809-.051 1.187l-.02.047c-.635 1.505-1.815 4.306-.16 6.688 1.181 1.7 2.423 2.137 3.388 2.137.188 0 .366-.016.531-.043 2.033-.336 3.561-2.474 4.81-6.729l2.345-7.987c.104-.355.11-.732.015-1.09zm-6.18 7.931c-.637 2.17-1.2 3.182-1.526 3.631a3.864 3.864 0 0 1-.121-.166c-.381-.548.188-1.899.565-2.793l.02-.047c.607-1.442.445-2.549.327-3.357-.076-.517-.103-.74-.008-1.046.078-.25.545-.495 1.248-.838.312-.152.656-.32 1.002-.522l-1.508 5.138zM54.705 25.158l-.13-.046c-1.007-.36-2.112.18-2.465 1.21-.354 1.03.177 2.158 1.185 2.52l.13.046c.212.076.428.112.64.112.799 0 1.546-.51 1.825-1.323.354-1.03-.177-2.158-1.185-2.519z"/>
    </g>
</svg>
