<svg width="31" height="26" viewBox="0 0 31 26" xmlns="http://www.w3.org/2000/svg">
    <path d="M30.352 3.234a12.46 12.46 0 0 1-3.54 1.006A6.297 6.297 0 0 0 29.515.72a12.02 12.02 0 0 1-3.897 1.542C24.491 1.017 22.884.246 21.13.246c-3.402 0-6.14 2.862-6.14 6.37 0 .505.04.99.142 1.453-5.108-.258-9.628-2.796-12.665-6.662a6.59 6.59 0 0 0-.841 3.22c0 2.205 1.096 4.16 2.73 5.292a5.905 5.905 0 0 1-2.777-.784v.07c0 3.094 2.13 5.665 4.923 6.257a5.93 5.93 0 0 1-1.611.21c-.393 0-.79-.024-1.163-.11.796 2.523 3.055 4.377 5.741 4.437a12.073 12.073 0 0 1-7.618 2.716c-.504 0-.987-.023-1.47-.087a16.86 16.86 0 0 0 9.425 2.858c11.307 0 17.489-9.708 17.489-18.122 0-.282-.01-.553-.022-.823 1.219-.897 2.244-2.017 3.08-3.307z" fill="#042D32" fill-rule="nonzero"/>
</svg>
